# xmcd
#
# Track frame offsets:
#	150
#	11900
#	29917
#	42325
#	52370
#	62972
#	73972
#	85352
#	99222
#	111120
#
# Disc length: 1632 seconds
# Revision: 0
# Processed by: cddbd v1.5.2PL0 Copyright (c) Steve Scherf et al.
# Submitted via: dBpowerAMP V12.0
#
DISCID=98065e0a
DTITLE=Willie Nelson and Patsy Cline - Back 2 Back
DYEAR=1998
DGENRE=Oldies
TTITLE0=Walking After Midnight
TTITLE1=Crazy
TTITLE2=Poor Man's Roses or Rich Man's Gold
TTITLE3=Hello Walls
TTITLE4=Lovesick Blues
TTITLE5=Night Life
TTITLE6=Just Out Of Reach
TTITLE7=Funny How Time Slips Away
TTITLE8=Honky Tonk Merry Go Round
TTITLE9=Pretty Paper
EXTD=
EXTT0=
EXTT1=
EXTT2=
EXTT3=
EXTT4=
EXTT5=
EXTT6=
EXTT7=
EXTT8=
EXTT9=
PLAYORDER=
